HIERARCHY
ROOT Hips
{
	OFFSET -3.958830 18.904000 13.208200
	CHANNELS 6 Xposition Yposition Zposition Zrotation Yrotation Xrotation 
	JOINT LHipJoint
	{
		OFFSET 0.000000 0.000000 0.000000
		CHANNELS 3 Zrotation Yrotation Xrotation
		JOINT LeftUpLeg
		{
			OFFSET 1.800000 -1.400000 0.085000
			CHANNELS 3 Zrotation Yrotation Xrotation
			JOINT LeftLeg
			{
				OFFSET 2.215000 -6.000000 0.000000
				CHANNELS 3 Zrotation Yrotation Xrotation
				JOINT LeftFoot
				{
					OFFSET 2.500000 -6.900000 0.000000
					CHANNELS 3 Zrotation Yrotation Xrotation
					JOINT LeftToeBase
					{
						OFFSET 0.200000 -0.500000 1.950000
						CHANNELS 3 Zrotation Yrotation Xrotation
						End Site
						{
							OFFSET 0.000000 0.000000 0.000000
						}
					}
				}
			}
		}
	}
	JOINT RHipJoint
	{
		OFFSET 0.000000 0.000000 0.000000
		CHANNELS 3 Zrotation Yrotation Xrotation
		JOINT RightUpLeg
		{
			OFFSET -1.800000 -1.400000 0.085000
			CHANNELS 3 Zrotation Yrotation Xrotation
			JOINT RightLeg
			{
				OFFSET -2.215000 -6.000000 0.000000
				CHANNELS 3 Zrotation Yrotation Xrotation
				JOINT RightFoot
				{
					OFFSET -2.500000 -6.900000 0.000000
					CHANNELS 3 Zrotation Yrotation Xrotation
					JOINT RightToeBase
					{
						OFFSET -0.200000 -0.500000 1.950000
						CHANNELS 3 Zrotation Yrotation Xrotation
						End Site
						{
							OFFSET 0.000000 0.000000 0.000000
						}
					}
				}
			}
		}
	}
	JOINT LowerBack
	{
		OFFSET 0.000000 0.000000 0.000000
		CHANNELS 3 Zrotation Yrotation Xrotation
		JOINT Spine
		{
			OFFSET -0.087000 1.940000 -0.288900
			CHANNELS 3 Zrotation Yrotation Xrotation
			JOINT Spine1
			{
				OFFSET 0.000000 1.950000 0.060000
				CHANNELS 3 Zrotation Yrotation Xrotation
				JOINT Neck
				{
					OFFSET 0.000000 0.000000 0.000000
					CHANNELS 3 Zrotation Yrotation Xrotation
					JOINT Neck1
					{
						OFFSET 0.000000 1.600000 0.340000
						CHANNELS 3 Zrotation Yrotation Xrotation
						JOINT Head
						{
							OFFSET 0.000000 1.667000 -0.240000
							CHANNELS 3 Zrotation Yrotation Xrotation
							End Site
							{
								OFFSET 0.000000 0.000000 0.000000
							}
						}
					}
				}
				JOINT LeftShoulder
				{
					OFFSET 0.000000 0.000000 0.000000
					CHANNELS 3 Zrotation Yrotation Xrotation
					JOINT LeftArm
					{
						OFFSET 2.700000 1.550000 -0.730000
						CHANNELS 3 Zrotation Yrotation Xrotation
						JOINT LeftForeArm
						{
							OFFSET 5.450000 0.000000 0.000000
							CHANNELS 3 Zrotation Yrotation Xrotation
							JOINT LeftHand
							{
								OFFSET 3.450000 0.000000 0.000000
								CHANNELS 3 Zrotation Yrotation Xrotation
								JOINT LeftHandIndex1
								{
									OFFSET 0.750000 0.000000 0.000000
									CHANNELS 3 Zrotation Yrotation Xrotation
									End Site
									{
										OFFSET 0.000000 0.000000 0.000000
									}
								}
							}
						}
					}
				}
				JOINT RightShoulder
				{
					OFFSET 0.000000 0.000000 0.000000
					CHANNELS 3 Zrotation Yrotation Xrotation
					JOINT RightArm
					{
						OFFSET -2.700000 1.550000 -0.730000
						CHANNELS 3 Zrotation Yrotation Xrotation
						JOINT RightForeArm
						{
							OFFSET -5.450000 0.000000 0.000000
							CHANNELS 3 Zrotation Yrotation Xrotation
							JOINT RightHand
							{
								OFFSET -3.450000 0.000000 0.000000
								CHANNELS 3 Zrotation Yrotation Xrotation
								JOINT RightHandIndex1
								{
									OFFSET -0.750000 0.000000 0.000000
									CHANNELS 3 Zrotation Yrotation Xrotation
									End Site
									{
										OFFSET 0.000000 0.000000 0.000000
									}
								}
							}
						}
					}
				}
			}
		}
	}
}
MOTION
Frames: 9
Frame Time: 0.016667
-0.401120 17.154480 -2.639940 4.837452 -8.717732 9.628698 -15.395723 12.323013 4.939867 0.262081 -8.236652 -41.134271 -8.105800 5.631521 19.020321 -0.858054 3.982533 3.447928 0.341720 -0.074310 0.040810 18.148434 -10.036216 2.620091 -1.840072 2.997873 -21.727318 6.432135 -4.873171 16.978062 -0.051698 -2.909381 3.617783 0.062420 0.810370 0.336020 -3.010423 -2.675956 -8.214965 -0.115986 3.594887 17.415616 -0.683190 4.321486 7.757861 -2.071962 -11.246054 -13.772513 -24.466113 2.187876 29.493138 2.242000 -7.073170 -13.139440 7.180954 -24.424175 3.064428 -11.124546 -31.316374 -2.647068 55.547738 -60.777654 -32.431301 -3.407515 2.040640 0.710700 0.302920 -0.110180 0.515310 -1.829356 35.755634 9.408071 21.665914 28.087248 -10.071671 -41.392737 70.277422 -27.179555 1.085956 -0.560422 -0.442730 0.590650 0.033080 0.014130 
-0.398240 17.125500 -2.634990 4.443009 -8.190812 9.436195 -15.366073 12.300156 4.918908 0.430257 -8.269455 -41.118334 -7.666344 6.043460 21.716361 -0.848151 4.343302 3.295981 0.382740 -0.021910 0.056650 18.186515 -10.050649 2.639838 -1.452989 3.249744 -22.168392 6.259211 -5.036897 18.622354 -0.073190 -3.050831 3.543550 0.112250 0.815140 0.354410 -3.114833 -2.588983 -8.198697 1.005289 3.178746 17.275245 -1.143518 4.170841 8.560376 -2.382245 -11.029366 -13.504082 -23.779022 2.033153 29.185283 2.017380 -7.046440 -13.202450 7.150399 -25.122295 2.830871 -12.357897 -33.098005 -2.094674 52.726016 -57.641303 -29.521345 -3.478388 2.171149 0.691230 0.323550 -0.117140 0.517270 -1.421625 35.998487 9.320899 22.302633 29.336053 -9.561816 -42.589651 67.315748 -26.656690 1.071790 -0.612625 -0.433460 0.591280 0.034460 0.012280 
-0.389510 17.050790 -2.633230 3.700432 -8.429602 9.755101 -15.338362 12.223088 4.867916 0.880848 -8.163346 -41.172416 -7.394234 6.892363 25.850290 -0.812528 5.054886 3.013486 0.437050 0.046610 0.072280 18.243089 -9.994341 2.742134 -0.604021 4.177020 -24.367307 5.486271 -5.205739 22.361642 -0.101743 -3.330801 3.405419 0.188700 0.844820 0.389650 -3.244071 -2.439452 -8.189489 2.685750 3.021631 16.090182 -1.622874 4.321640 9.857545 -2.703752 -10.873240 -13.132649 -23.193055 1.624945 28.896640 0.889280 -7.238980 -12.338490 6.774599 -26.068545 2.663131 -16.664484 -37.135436 0.166400 50.404109 -50.233956 -25.737395 -3.616242 2.329039 0.643990 0.378600 -0.143480 0.525940 -0.707361 36.575916 9.112567 23.934368 32.726850 -7.567468 -45.128612 60.412614 -25.421232 1.081529 -0.750489 -0.423800 0.596220 0.042620 0.014590 
-0.392010 16.975370 -2.629290 2.760168 -8.121728 9.239837 -15.311752 12.191830 4.725750 1.677858 -7.862084 -40.218120 -7.134131 7.956834 30.644909 -0.807989 5.995081 2.654151 0.586130 0.205020 0.183370 18.298100 -9.907387 2.888672 0.248161 5.318213 -26.246773 4.777455 -5.547363 27.303082 -0.226138 -3.869447 3.168113 0.341760 0.840760 0.418380 -3.370786 -2.366985 -8.189226 4.230471 2.629191 15.629458 -1.527359 4.234585 11.978669 -3.353246 -10.289068 -12.467679 -21.788517 1.437727 28.974652 -0.626690 -6.687840 -12.938030 5.952223 -27.624684 2.103527 -21.112439 -42.222238 2.979229 48.968312 -40.080066 -22.091394 -3.753896 2.459561 0.649870 0.417210 -0.131680 0.561390 0.920390 37.269809 8.982060 25.314011 35.875092 -5.863079 -47.739429 53.418811 -24.807056 1.105887 -0.937581 -0.439730 0.635330 -0.008140 -0.017700 
-0.405790 16.898320 -2.623150 2.507596 -6.317417 8.563161 -15.288702 12.120798 4.597353 1.503554 -7.988538 -39.111621 -6.332203 8.615142 34.887967 -0.767808 6.716709 2.359014 0.715150 0.383440 0.261530 18.355071 -9.734833 3.101584 -0.379683 6.682191 -28.871310 5.623154 -6.753717 33.618384 -0.436139 -4.824447 2.777317 0.483160 0.811270 0.428170 -3.509574 -2.381328 -8.274979 5.273258 1.679511 15.783338 -2.134262 3.590336 13.806144 -3.885449 -9.733004 -12.099155 -20.588842 0.918077 29.076423 -1.173730 -6.853450 -14.344750 4.387280 -29.733684 1.676657 -24.563967 -46.423772 4.915857 48.701630 -32.547318 -20.112607 -3.850064 2.528467 0.635240 0.423660 -0.098930 0.579470 3.124964 38.239818 9.073900 27.162496 38.753386 -4.659209 -50.119224 46.956451 -24.570306 1.170627 -1.105019 -0.422130 0.673200 -0.048110 -0.022170 
-0.412190 16.826650 -2.623250 1.943171 -2.964464 7.333174 -15.230878 12.059497 4.379218 1.007854 -8.137875 -37.301509 -4.365886 8.431894 38.217126 -0.760045 7.128341 2.196242 0.798740 0.489520 0.325980 18.434860 -9.546711 3.416444 -2.411937 7.960043 -31.548693 9.164204 -9.651174 40.045161 -0.754075 -6.264195 2.255667 0.569390 0.783870 0.421050 -3.739393 -2.390233 -8.439862 7.096318 -0.006127 16.770043 -3.073791 2.281275 15.886985 -3.895248 -9.112022 -12.479788 -19.702191 0.643800 30.246076 -1.454640 -7.057810 -15.385040 2.501756 -32.540846 2.170863 -26.312971 -48.841300 4.599462 49.982286 -29.003038 -20.183932 -3.907241 2.508200 0.654630 0.413850 -0.069250 0.584650 4.823124 39.524439 9.407881 28.550183 40.403338 -5.232509 -52.787889 43.473068 -25.604223 1.203460 -1.178896 -0.424730 0.716340 -0.071320 -0.038500 
-0.419420 16.741910 -2.625390 1.897084 0.816565 6.584445 -15.239782 11.968146 4.233118 -0.196243 -8.625249 -36.217471 -1.670838 7.477729 40.345226 -0.805382 7.197508 2.138466 0.881870 0.577390 0.404120 18.461363 -9.224215 3.804533 -6.071426 8.680390 -35.139921 14.133062 -13.856487 45.380634 -1.158110 -7.922433 1.677444 0.629140 0.723350 0.437760 -3.794331 -2.590305 -8.703765 7.413337 -1.404094 17.487381 -3.351365 0.892264 17.468440 -3.432673 -8.326062 -13.044515 -18.794229 0.894539 32.265035 -1.912290 -6.738250 -16.938970 0.988984 -34.075960 3.452176 -29.807372 -52.421027 5.324134 52.556302 -27.156534 -21.542265 -3.910936 2.456554 0.710280 0.385250 -0.012650 0.575350 5.447790 39.817502 9.364394 31.767560 42.869194 -5.035736 -56.031596 42.392380 -27.847273 1.172065 -1.164497 -0.413930 0.726340 -0.088380 -0.072400 
-0.434640 16.649740 -2.620080 2.055383 4.688941 5.972464 -15.266625 11.828680 4.149589 -1.161286 -9.238232 -35.560292 0.497537 6.565459 41.802169 -0.796745 7.178473 2.111856 0.968760 0.675860 0.472640 18.478198 -8.843832 4.226789 -10.887730 8.409399 -38.797446 19.528366 -18.866760 49.455306 -1.610472 -9.606832 1.124095 0.669220 0.641530 0.454380 -3.799464 -2.849530 -9.038870 7.099711 -2.677178 18.498863 -3.327850 -0.498704 18.669097 -2.959800 -7.651050 -13.923292 -18.097857 1.202151 34.314631 -1.407470 -6.662670 -18.711630 -0.730409 -34.949338 5.217430 -33.163871 -55.698844 6.047492 54.238956 -29.351573 -23.852397 -3.853217 2.380618 0.759430 0.323700 0.064160 0.576790 6.424097 39.657614 9.378876 35.476455 45.000890 -4.868337 -59.172183 44.312855 -31.238206 1.144602 -1.060275 -0.371000 0.709320 -0.127820 -0.082290 
-0.449720 16.532430 -2.597520 1.921584 6.877135 5.892178 -15.285470 11.560595 4.098143 -1.574124 -9.708881 -35.997592 2.057756 6.214469 43.866861 -0.704999 7.359159 2.014346 1.069440 0.799050 0.547370 18.540493 -8.391217 4.705060 -15.443783 8.119871 -42.887731 23.484963 -23.619106 53.682084 -2.054235 -11.161512 0.661667 0.711370 0.551000 0.466190 -3.853431 -2.982764 -9.376453 7.194701 -3.421984 18.820496 -3.862904 -1.207059 19.726772 -2.244627 -7.216764 -15.104794 -17.712122 1.902089 35.863189 -0.926940 -6.252220 -19.709010 -2.020571 -34.301075 7.822142 -39.309262 -59.707526 8.189534 55.910609 -34.058721 -27.296798 -3.766763 2.343861 0.774230 0.262530 0.140020 0.594430 6.514579 38.385527 9.157879 40.836071 47.351456 -3.754649 -62.016071 47.576430 -35.272389 1.127579 -0.930588 -0.305180 0.669060 -0.200480 -0.076730 
